# AST/ASF file generated using VICON BodyLanguage
# -----------------------------------------------
:version 1.10
:name VICON
:units
  mass 1.0
  length 0.45
  angle deg
:documentation
   .ast/.asf automatically generated from VICON data using
   VICON BodyBuilder and BodyLanguage model FoxedUp or BRILLIANT.MOD
:root
   order TX TY TZ RX RY RZ
   axis XYZ
   position 0 0 0  
   orientation 0 0 0 
:bonedata
  begin
     id 1 
     name lhipjoint
     direction 0.577973 -0.728611 0.367523 
     length 2.48544 
     axis 0 0 0  XYZ
  end
  begin
     id 2 
     name lfemur
     direction 0.34202 -0.939693 0  
     length 7.1921  
     axis 0 0 20  XYZ
    dof rx ry rz
    limits (-160.0 20.0)
           (-70.0 70.0)
           (-60.0 70.0)
  end
  begin
     id 3 
     name ltibia
     direction 0.34202 -0.939693 0   
     length 7.71059   
     axis 0 0 20   XYZ
    dof rx
    limits (-10.0 170.0)
  end
  begin
     id 4 
     name lfoot
     direction 0.089538 -0.246004 0.965124   
     length 2.19909   
     axis -90 7.62852e-016 20   XYZ
    dof rx rz
    limits (-45.0 90.0)
           (-70.0 20.0)
  end
  begin
     id 5 
     name ltoes
     direction 1.53544e-011 -4.21829e-011 1   
     length 1.10116   
     axis -90 7.62852e-016 20   XYZ
    dof rx
    limits (-90.0 20.0)
  end
  begin
     id 6 
     name rhipjoint
     direction -0.554414 -0.743062 0.374812   
     length 2.4371  
     axis 0 0 0  XYZ 
  end
  begin
     id 7 
     name rfemur
     direction -0.34202 -0.939693 0   
     length 7.47254   
     axis 0 0 -20   XYZ
    dof rx ry rz
    limits (-160.0 20.0)
           (-70.0 70.0)
           (-70.0 60.0)
  end
  begin
     id 8 
     name rtibia
     direction -0.34202 -0.939693 0   
     length 7.65855   
     axis 0 0 -20   XYZ
    dof rx
    limits (-10.0 170.0)
 end
 begin
     id 9 
     name rfoot
     direction -0.133779 -0.367555 0.92033   
     length 2.43006  
     axis -90 -7.62852e-016 -20   XYZ
    dof rx rz
    limits (-45.0 90.0)
           (-20.0 70.0)
  end
  begin
     id 10 
     name rtoes
     direction -1.53563e-011 -4.21889e-011 1   
     length 1.19625   
     axis -90 -7.62852e-016 -20   XYZ
    dof rx
    limits (-90.0 20.0)
  end
  begin
     id 11 
     name lowerback
     direction 0.0249066 0.998043 -0.0573585   
     length 2.08485   
     axis 0 0 0   XYZ
    dof rx ry rz
    limits (-20.0 45.0)
           (-30.0 30.0)
           (-30.0 30.0)
  end
  begin
     id 12 
     name upperback
     direction 0.0237884 0.999673 0.00943178   
     length 2.08515   
     axis 0 0 0   XYZ
    dof rx ry rz
    limits (-20.0 45.0)
           (-30.0 30.0)
           (-30.0 30.0)
  end
  begin
     id 13 
     name thorax
     direction 0.0106671 0.999301 0.0358174   
     length 2.09037   
     axis 0 0 0   XYZ
    dof rx ry rz
    limits (-20.0 45.0)
           (-30.0 30.0)
           (-30.0 30.0)
  end
  begin
     id 14 
     name lowerneck
     direction -0.0580016 0.987052 0.149546   
     length 1.84454   
     axis 0 0 0   XYZ
    dof rx ry rz
    limits (-20.0 45.0)
           (-30.0 30.0)
           (-30.0 30.0)
  end
  begin
     id 15 
     name upperneck
     direction 0.079456 0.981963 -0.171567   
     length 1.88141   
     axis 0 0 0   XYZ
    dof rx ry rz
    limits (-20.0 45.0)
           (-30.0 30.0)
           (-30.0 30.0)
  end
  begin
     id 16
     name head
     direction 0.0262167 0.9967 -0.0768276  
     length 1.89541  
     axis 0 0 0   XYZ
    dof rx ry rz
    limits (-20.0 45.0)
           (-30.0 30.0)
           (-30.0 30.0)
  end
  begin
     id 17 
     name lclavicle
     direction 0.946135 0.322134 -0.0325326  
     length 3.949  
     axis 0 0 0   XYZ
    dof ry rz
    limits (-20.0 10.0)
           (0.0 20.0)
  end
  begin
     id 18 
     name lhumerus
     direction 1 -4.48964e-011 1.94005e-028   
     length 5.10995   
     axis 180 -30 -90   XYZ
    dof rx ry rz
    limits (-60.0 90.0)
           (-90.0 90.0)
           (-90.0 90.0)
  end
  begin
     id 19
     name lradius
     direction 1 -4.48976e-011 2.87852e-027   
     length 3.21207   
     axis 180 -30 -90   XYZ
    dof rx
    limits (-10.0 170.0)
  end
  begin
     id 20
     name lwrist
     direction 1 -4.48963e-011 1.9975e-027   
     length 1.60604   
     axis 2.96054e-016 90 90   XYZ
    dof ry
    limits (-180.0 0.0)
 end
  begin
     id 21 
     name lhand
     direction 1 -4.48919e-011 4.00227e-027   
     length 0.63349   
     axis -2.5488e-015 90 90   XYZ
    dof rx rz
    limits (-90.0 90.0)
           (-45.0 45.0)
  end
  begin
     id 22 
     name lfingers
     direction 1 -4.49037e-011 7.9652e-027   
     length 0.510736   
     axis -5.0975e-015 90 90   XYZ
    dof rx
    limits (0.0 90.0)
  end
  begin
     id 23
     name lthumb
     direction 0.707107 -6.34922e-011 0.707107   
     length 0.733318   
     axis -90 45 -4.48553e-014   XYZ
    dof rx rz
    limits (-45.0 45.0)
           (-45.0 45.0)
  end
  begin
     id 24 
     name rclavicle
     direction -0.940085 0.328911 -0.0897654   
     length 3.93848  
     axis 0 0 0   XYZ 
    dof ry rz
    limits (-10.0 20.0)
           (-20.0 0.0)
  end
  begin
     id 25 
     name rhumerus
     direction -1 -4.48958e-011 3.02044e-027  
     length 5.25109   
     axis 180 30 90   XYZ
    dof rx ry rz
    limits (-90.0 60.0)
           (-90.0 90.0)
           (-90.0 90.0)
  end
  begin
     id 26 
     name rradius
     direction -1 -4.4897e-011 9.78352e-028   
     length 3.28364   
     axis 180 30 90   XYZ
    dof rx
    limits (-10.0 170.0)
  end
  begin
     id 27 
     name rwrist
     direction -1 -4.48943e-011 1.99918e-027   
     length 1.64182   
     axis 2.96054e-016 -90 -90   XYZ
    dof ry
    limits (-180.0 0.0)
  end
  begin
     id 28
     name rhand
     direction -1 -4.49024e-011 3.98478e-027   
     length 0.599745   
     axis -2.5488e-015 -90 -90   XYZ
    dof rx rz
    limits (-90.0 90.0)
           (-45.0 45.0)
  end
  begin
     id 29
     name rfingers
     direction -1 -4.48914e-011 8.00621e-027   
     length 0.48353   
     axis -5.0975e-015 -90 -90   XYZ
    dof rx
    limits (0.0 90.0)
  end
  begin
     id 30
     name rthumb
     direction -0.707107 -6.34992e-011 0.707107   
     length 0.694255   
     axis -90 -45 4.48553e-014   XYZ
    dof rx rz
    limits (-45.0 45.0)
           (-45.0 45.0)
  end
:hierarchy
  begin
    root lhipjoint rhipjoint lowerback
    lhipjoint lfemur
    lfemur ltibia
    ltibia lfoot
    lfoot ltoes
    rhipjoint rfemur
    rfemur rtibia
    rtibia rfoot
    rfoot rtoes
    lowerback upperback
    upperback thorax
    thorax lowerneck lclavicle rclavicle
    lowerneck upperneck
    upperneck head
    lclavicle lhumerus
    lhumerus lradius
    lradius lwrist
    lwrist lhand lthumb
    lhand lfingers
    rclavicle rhumerus
    rhumerus rradius
    rradius rwrist
    rwrist rhand rthumb
    rhand rfingers
  end

#!OML:ASF E:\CV Data\Top Level 1\Subject 1\Session 1\player.ASF
:FULLY-SPECIFIED
:DEGREES
114
root 5.20554 17.7953 -21.3948 14.361 1.39216 -6.37878
lowerback 18.4752 -0.0628245 6.68025
upperback 6.04761 1.34063 4.73769
thorax -3.78285 0.644162 0.974295
lowerneck -16.1898 -8.01283 -12.694
upperneck 32.4876 -9.33683 4.85213
head 14.8809 -4.86349 2.50857
rclavicle -1.66979e-014 -5.64548e-014
rhumerus -16.2927 6.56647 -79.6869
rradius 68.5232
rwrist -21.13
rhand -19.3577 0.100771
rfingers 7.12502
rthumb 6.9599 -29.7648
lclavicle -1.66979e-014 -5.64548e-014
lhumerus -20.6148 -9.43729 91.6991
lradius 95.1003
lwrist 23.6351
lhand -25.5185 16.5601
lfingers 7.12502
lthumb 1.01078 46.5375
rfemur -29.4536 -0.211285 25.265
rtibia 30.5185
rfoot -12.2856 -11.6253
rtoes 2.57928
lfemur -31.0169 5.19424 -7.01642
ltibia 30.4555
lfoot -7.16314 -1.76028
ltoes -7.0752
115
root 5.22864 17.7792 -21.4247 14.481 1.10642 -6.33505
lowerback 19.0107 0.0184263 6.56783
upperback 6.19986 1.46421 4.71347
thorax -3.89884 0.702017 0.983246
lowerneck -16.3716 -8.05632 -12.6658
upperneck 32.2479 -9.39036 4.90638
head 14.8182 -4.86873 2.508
rclavicle 1.66979e-014 4.29375e-014
rhumerus -16.1908 6.81305 -79.5638
rradius 67.4555
rwrist -20.8465
rhand -18.6367 -0.02233
rfingers 7.12502
rthumb 7.65583 -29.8638
lclavicle 1.66979e-014 4.29375e-014
lhumerus -20.7616 -10.063 92.1769
lradius 94.1635
lwrist 22.8911
lhand -25.5218 16.6215
lfingers 7.12502
lthumb 1.00756 46.5989
rfemur -29.9788 -0.233634 25.1402
rtibia 31.0203
rfoot -12.3733 -11.3784
rtoes 2.4878
lfemur -31.3299 5.30785 -7.18575
ltibia 30.7601
lfoot -7.07161 -1.74682
ltoes -7.02673
116
root 5.25375 17.7618 -21.4549 14.6103 0.785826 -6.27597
lowerback 19.5806 0.105834 6.42511
upperback 6.33712 1.59259 4.68531
thorax -4.04864 0.760943 1.00236
lowerneck -16.5469 -8.09246 -12.6557
upperneck 32.0043 -9.43047 4.96768
head 14.7529 -4.86987 2.51603
rclavicle 9.93923e-015 1.66979e-014
rhumerus -16.0796 7.05045 -79.4581
rradius 66.4449
rwrist -20.4108
rhand -18.0503 -0.0720424
rfingers 7.12502
rthumb 8.22178 -29.8921
lclavicle 9.93923e-015 1.66979e-014
lhumerus -20.88 -10.6652 92.6724
lradius 93.2037
lwrist 22.1257
lhand -25.5353 16.7216
lfingers 7.12502
lthumb 0.994601 46.699
rfemur -30.5327 -0.272595 24.9962
rtibia 31.5484
rfoot -12.474 -11.0936
rtoes 2.39271
lfemur -31.6394 5.4491 -7.39305
ltibia 31.0678
lfoot -7.02499 -1.71283
ltoes -7.02711
117
root 5.28093 17.7431 -21.4853 14.7475 0.441904 -6.19831
lowerback 20.135 0.192383 6.25884
upperback 6.48075 1.71068 4.65147
thorax -4.18324 0.81504 1.02968
lowerneck -16.7007 -8.1152 -12.6652
upperneck 31.7323 -9.4509 5.04301
head 14.6703 -4.86361 2.5373
rclavicle -3.97569e-015 6.36111e-015
rhumerus -15.9321 7.2777 -79.3708
rradius 65.4943
rwrist -19.7844
rhand -17.5701 -0.0792737
rfingers 7.12502
rthumb 8.68525 -29.8806
lclavicle -3.97569e-015 6.36111e-015
lhumerus -20.9449 -11.2357 93.172
lradius 92.225
lwrist 21.3762
lhand -25.5533 16.8303
lfingers 7.12502
lthumb 0.977196 46.8078
rfemur -31.1196 -0.333604 24.8306
rtibia 32.1143
rfoot -12.5926 -10.7774
rtoes 2.28421
lfemur -31.9544 5.61563 -7.64374
ltibia 31.384
lfoot -7.04564 -1.64272
ltoes -7.1203
118
root 5.30913 17.7225 -21.5178 14.9066 0.106662 -6.0956
lowerback 20.6897 0.270466 6.06847
upperback 6.61359 1.81128 4.61195
thorax -4.32978 0.860114 1.06727
lowerneck -16.8385 -8.12565 -12.6865
upperneck 31.4427 -9.45426 5.12878
head 14.5763 -4.85051 2.56839
rclavicle -3.97569e-015 1.59028e-015
rhumerus -15.7629 7.48365 -79.3075
rradius 64.6171
rwrist -19.0121
rhand -17.202 -0.0517059
rfingers 7.12502
rthumb 9.04041 -29.838
lclavicle -3.97569e-015 1.59028e-015
lhumerus -20.9643 -11.7822 93.6668
lradius 91.2406
lwrist 20.6905
lhand -25.5705 16.9577
lfingers 7.12502
lthumb 0.960598 46.9353
rfemur -31.769 -0.416765 24.6409
rtibia 32.7315
rfoot -12.7261 -10.4574
rtoes 2.17886
lfemur -32.3162 5.8094 -7.94366
ltibia 31.7123
lfoot -7.13348 -1.54764
ltoes -7.26961
119
root 5.33845 17.6997 -21.5523 15.0934 -0.198849 -5.96356
lowerback 21.1909 0.337783 5.88008
upperback 6.75296 1.8895 4.55539
thorax -4.4403 0.895295 1.09028
lowerneck -16.9587 -8.1289 -12.6946
upperneck 31.1262 -9.45528 5.22398
head 14.4661 -4.83384 2.60185
rclavicle -2.06736e-014 -4.37326e-014
rhumerus -15.5516 7.62171 -79.2733
rradius 63.8191
rwrist -18.1518
rhand -16.9085 0.00281175
rfingers 7.12502
rthumb 9.32366 -29.771
lclavicle -2.06736e-014 -4.37326e-014
lhumerus -20.9059 -12.3367 94.1422
lradius 90.2443
lwrist 20.0982
lhand -25.5531 17.0476
lfingers 7.12502
lthumb 0.977379 47.0251
rfemur -32.4933 -0.530483 24.4242
rtibia 33.41
rfoot -12.8744 -10.1429
rtoes 2.07384
lfemur -32.745 6.0282 -8.30092
ltibia 32.0526
lfoot -7.27474 -1.43587
ltoes -7.44932
120
root 5.36846 17.6746 -21.5894 15.3193 -0.453551 -5.80218
lowerback 21.6469 0.383141 5.68897
upperback 6.87494 1.93392 4.49355
thorax -4.54605 0.914147 1.11708
lowerneck -17.0363 -8.11618 -12.7065
upperneck 30.7956 -9.4367 5.31974
head 14.3393 -4.81016 2.64102
rclavicle -1.27222e-014 -2.78299e-014
rhumerus -15.3324 7.7195 -79.2627
rradius 63.12
rwrist -17.3173
rhand -16.6717 0.0847646
rfingers 7.12502
rthumb 9.55215 -29.6787
lclavicle -1.27222e-014 -2.78299e-014
lhumerus -20.807 -12.8768 94.6084
lradius 89.2449
lwrist 19.624
lhand -25.5381 17.088
lfingers 7.12502
lthumb 0.991906 47.0655
rfemur -33.31 -0.674168 24.1818
rtibia 34.1552
rfoot -13.0343 -9.85029
rtoes 1.98076
lfemur -33.2656 6.27137 -8.71632
ltibia 32.4062
lfoot -7.45443 -1.32813
ltoes -7.62526
121
root 5.39897 17.6472 -21.6287 15.5819 -0.664947 -5.61635
lowerback 22.0528 0.42274 5.52395
upperback 6.99699 1.96877 4.40789
thorax -4.62342 0.929287 1.10597
lowerneck -17.1282 -8.11167 -12.6765
upperneck 30.4664 -9.44038 5.41288
head 14.2166 -4.79118 2.66736
rclavicle -7.95139e-016 -1.66979e-014
rhumerus -15.0704 7.68661 -79.2863
rradius 62.511
rwrist -16.5988
rhand -16.4835 0.208927
rfingers 7.12502
rthumb 9.73367 -29.5461
lclavicle -7.95139e-016 -1.66979e-014
lhumerus -20.6202 -13.4737 95.0414
lradius 88.2373
lwrist 19.2954
lhand -25.5159 17.0835
lfingers 7.12502
lthumb 1.0133 47.0608
rfemur -34.2107 -0.836153 23.9166
rtibia 34.9593
rfoot -13.2005 -9.58061
rtoes 1.90242
lfemur -33.8707 6.5438 -9.18449
ltibia 32.7736
lfoot -7.65944 -1.23347
ltoes -7.74011
122
root 5.42981 17.6178 -21.6693 15.8854 -0.843044 -5.41818
lowerback 22.4406 0.453619 5.3625
upperback 7.09458 1.99211 4.32323
thorax -4.71738 0.938414 1.09658
lowerneck -17.2202 -8.10689 -12.6501
upperneck 30.1537 -9.43983 5.49658
head 14.1015 -4.77229 2.69123
rclavicle -1.59028e-015 -1.59028e-015
rhumerus -14.8096 7.60002 -79.322
rradius 62.0208
rwrist -16.0955
rhand -16.3347 0.381776
rfingers 7.12502
rthumb 9.87729 -29.3665
lclavicle -1.59028e-015 -1.59028e-015
lhumerus -20.4011 -14.0759 95.4717
lradius 87.2497
lwrist 19.1113
lhand -25.4794 17.0265
lfingers 7.12502
lthumb 1.04852 47.0037
rfemur -35.1872 -1.00066 23.6383
rtibia 35.8034
rfoot -13.3644 -9.33609
rtoes 1.82494
lfemur -34.5562 6.84534 -9.68881
ltibia 33.1579
lfoot -7.88507 -1.16171
ltoes -7.80971
123
root 5.46128 17.587 -21.7101 16.2199 -0.995932 -5.21413
lowerback 22.7777 0.47199 5.2175
upperback 7.18142 1.99822 4.23719
thorax -4.79616 0.939603 1.08111
lowerneck -17.2859 -8.09477 -12.6276
upperneck 29.8444 -9.42757 5.57068
head 13.9815 -4.75082 2.7148
rclavicle -1.51076e-014 -1.27222e-014
rhumerus -14.5358 7.4762 -79.3747
rradius 61.6425
rwrist -15.8444
rhand -16.2386 0.573245
rfingers 7.12502
rthumb 9.96999 -29.1706
lclavicle -1.51076e-014 -1.27222e-014
lhumerus -20.1473 -14.675 95.8898
lradius 86.2924
lwrist 19.0754
lhand -25.4615 16.9592
lfingers 7.12502
lthumb 1.06589 46.9363
rfemur -36.2092 -1.16003 23.3507
rtibia 36.6594
rfoot -13.5194 -9.11958
rtoes 1.73008
lfemur -35.2998 7.1519 -10.2105
ltibia 33.5603
lfoot -8.12913 -1.11194
ltoes -7.85684
124
root 5.49254 17.5557 -21.7511 16.5606 -1.1537 -5.02052
lowerback 23.1761 0.497465 5.0484
upperback 7.23452 2.0157 4.17555
thorax -4.94393 0.944467 1.10184
lowerneck -17.3629 -8.08501 -12.6311
upperneck 29.5669 -9.40197 5.61928
head 13.8775 -4.72986 2.73466
rclavicle 1.03368e-014 1.11319e-014
rhumerus -14.2778 7.35446 -79.412
rradius 61.3823
rwrist -15.8476
rhand -16.196 0.794366
rfingers 7.12502
rthumb 10.0111 -28.9475
lclavicle 1.03368e-014 1.11319e-014
lhumerus -19.8935 -15.2496 96.3274
lradius 85.4001
lwrist 19.1903
lhand -25.4423 16.9605
lfingers 7.12502
lthumb 1.08435 46.9375
rfemur -37.2312 -1.28976 23.0677
rtibia 37.501
rfoot -13.6675 -8.92428
rtoes 1.62976
lfemur -36.0584 7.4671 -10.718
ltibia 33.9853
lfoot -8.39763 -1.09535
ltoes -7.86722
125
root 5.52369 17.5246 -21.7913 16.8946 -1.32175 -4.84697
lowerback 23.575 0.5226 4.89272
upperback 7.30387 2.03301 4.11717
thorax -5.07294 0.949691 1.11856
lowerneck -17.47 -8.07719 -12.636
upperneck 29.2807 -9.37273 5.66336
head 13.7762 -4.7074 2.75252
rclavicle -3.57812e-014 -6.67916e-014
rhumerus -13.9571 7.21258 -79.4591
rradius 61.2173
rwrist -16.0333
rhand -16.1831 1.03989
rfingers 7.12502
rthumb 10.0236 -28.7014
lclavicle -3.57812e-014 -6.67916e-014
lhumerus -19.57 -15.8264 96.7308
lradius 84.5764
lwrist 19.4142
lhand -25.4511 17.0805
lfingers 7.12502
lthumb 1.07587 47.0575
rfemur -38.2228 -1.38809 22.7985
rtibia 38.3083
rfoot -13.8109 -8.74705
rtoes 1.52045
lfemur -36.8133 7.77521 -11.19
ltibia 34.4348
lfoot -8.6887 -1.11894
ltoes -7.90536
126
root 5.554 17.4938 -21.8324 17.2225 -1.47564 -4.68631
lowerback 24.0137 0.539812 4.7442
upperback 7.37444 2.04355 4.06526
thorax -5.21973 0.951271 1.13966
lowerneck -17.6118 -8.07189 -12.6447
upperneck 28.9887 -9.34019 5.70488
head 13.6803 -4.68353 2.76942
rclavicle 2.38542e-015 -7.95139e-015
rhumerus -13.5847 7.05775 -79.5151
rradius 61.143
rwrist -16.3396
rhand -16.194 1.32767
rfingers 7.12502
rthumb 10.013 -28.4141
lclavicle 2.38542e-015 -7.95139e-015
lhumerus -19.1784 -16.3996 97.098
lradius 83.8198
lwrist 19.7059
lhand -25.4843 17.346
lfingers 7.12502
lthumb 1.04386 47.3231
rfemur -39.184 -1.46879 22.542
rtibia 39.0742
rfoot -13.9492 -8.59861
rtoes 1.41844
lfemur -37.5796 8.05373 -11.6212
ltibia 34.9134
lfoot -8.98525 -1.20658
ltoes -7.9164
127
root 5.58426 17.4628 -21.8738 17.5444 -1.58324 -4.52919
lowerback 24.4379 0.53193 4.64478
upperback 7.46522 2.02888 4.0029
thorax -5.33389 0.941615 1.1288
lowerneck -17.7699 -8.06916 -12.6393
upperneck 28.6695 -9.31544 5.75595
head 13.5772 -4.65974 2.78555
rclavicle -1.11319e-014 -1.66979e-014
rhumerus -13.1485 6.86603 -79.5932
rradius 61.1558
rwrist -16.6703
rhand -16.2217 1.64175
rfingers 7.12502
rthumb 9.98624 -28.1013
lclavicle -1.11319e-014 -1.66979e-014
lhumerus -18.6914 -16.9949 97.4046
lradius 83.113
lwrist 20.0117
lhand -25.5246 17.7042
lfingers 7.12502
lthumb 1.00491 47.6816
rfemur -40.1137 -1.56474 22.2943
rtibia 39.799
rfoot -14.0809 -8.48277
rtoes 1.30102
lfemur -38.3766 8.28372 -12.0246
ltibia 35.4224
lfoot -9.2635 -1.36526
ltoes -7.93224
